<?xml version="1.0" encoding="UTF-8" standalone="no"?>
<!DOCTYPE svg PUBLIC "-//W3C//DTD SVG 1.1//EN" "http://www.w3.org/Graphics/SVG/1.1/DTD/svg11.dtd">
<svg width="100%" height="100%" viewBox="0 0 964 389" version="1.1" xmlns="http://www.w3.org/2000/svg" xmlns:xlink="http://www.w3.org/1999/xlink" xml:space="preserve" xmlns:serif="http://www.serif.com/" style="fill-rule:evenodd;clip-rule:evenodd;stroke-linejoin:round;stroke-miterlimit:2;">
    <g id="MMotors-Logo" serif:id="MMotors Logo" transform="matrix(1,0,0,1,-17,-58)">
        <rect x="17" y="58" width="964" height="389" style="fill:none;"/>
        <g transform="matrix(9.572442,0,0,9.572442,-1950.182352,-3225.559568)">
            <g>
                <path d="M268.08,345.008L282.631,345.008L282.246,358.785L285.837,345.008L304.137,345.008C304.189,345.008 304.238,345.03 304.272,345.068C304.306,345.106 304.322,345.157 304.317,345.208C303.996,348.077 300.339,380.799 300.339,380.799L288.306,380.799L291.306,356.504C291.306,356.504 284.877,378.795 284.335,380.673C284.314,380.748 284.246,380.799 284.168,380.799C282.981,380.799 274.12,380.799 274.12,380.799L275.138,356.504C275.138,356.504 267.826,378.708 267.183,380.662C267.156,380.744 267.08,380.799 266.993,380.799L256.08,380.799L268.08,345.008Z" style="fill-rule:nonzero;"/>
            </g>
            <g transform="matrix(1,0,0,1,-49,0)">
                <path d="M292,380.799L288.306,380.799L291.306,356.504C291.306,356.504 284.868,378.826 284.334,380.677C284.313,380.749 284.247,380.799 284.172,380.799L274.12,380.799L274.138,356.504L265.138,380.799L256.08,380.799L268.08,345.008L282.631,345.008L282.246,358.785L285.837,345.008L302.167,345.008C302.211,345.008 302.252,345.027 302.282,345.059C302.311,345.092 302.325,345.135 302.32,345.179C302.196,346.29 301.508,352.439 301.508,352.439L292,380.799Z"/>
            </g>
            <g transform="matrix(1,0,0,1,3,0)">
                <path d="M264,345.008L252,380.799L246,380.799L258,345.008L264,345.008Z" style="fill:rgb(223,27,81);"/>
            </g>
            <g transform="matrix(1,0,0,1,-4,0)">
                <path d="M264,345.008L252,380.799L248,380.799L260,345.008L264,345.008Z" style="fill:rgb(42,93,171);"/>
            </g>
        </g>
    </g>
</svg>
